HIERARCHY
ROOT Hips
{
	OFFSET -3.958830 18.904000 13.208200
	CHANNELS 6 Xposition Yposition Zposition Zrotation Yrotation Xrotation 
	JOINT LHipJoint
	{
		OFFSET 0.000000 0.000000 0.000000
		CHANNELS 3 Zrotation Yrotation Xrotation
		JOINT LeftUpLeg
		{
			OFFSET 1.800000 -1.400000 0.085000
			CHANNELS 3 Zrotation Yrotation Xrotation
			JOINT LeftLeg
			{
				OFFSET 2.215000 -6.000000 0.000000
				CHANNELS 3 Zrotation Yrotation Xrotation
				JOINT LeftFoot
				{
					OFFSET 2.500000 -6.900000 0.000000
					CHANNELS 3 Zrotation Yrotation Xrotation
					JOINT LeftToeBase
					{
						OFFSET 0.200000 -0.500000 1.950000
						CHANNELS 3 Zrotation Yrotation Xrotation
						End Site
						{
							OFFSET 0.000000 0.000000 0.000000
						}
					}
				}
			}
		}
	}
	JOINT RHipJoint
	{
		OFFSET 0.000000 0.000000 0.000000
		CHANNELS 3 Zrotation Yrotation Xrotation
		JOINT RightUpLeg
		{
			OFFSET -1.800000 -1.400000 0.085000
			CHANNELS 3 Zrotation Yrotation Xrotation
			JOINT RightLeg
			{
				OFFSET -2.215000 -6.000000 0.000000
				CHANNELS 3 Zrotation Yrotation Xrotation
				JOINT RightFoot
				{
					OFFSET -2.500000 -6.900000 0.000000
					CHANNELS 3 Zrotation Yrotation Xrotation
					JOINT RightToeBase
					{
						OFFSET -0.200000 -0.500000 1.950000
						CHANNELS 3 Zrotation Yrotation Xrotation
						End Site
						{
							OFFSET 0.000000 0.000000 0.000000
						}
					}
				}
			}
		}
	}
	JOINT LowerBack
	{
		OFFSET 0.000000 0.000000 0.000000
		CHANNELS 3 Zrotation Yrotation Xrotation
		JOINT Spine
		{
			OFFSET -0.087000 1.940000 -0.288900
			CHANNELS 3 Zrotation Yrotation Xrotation
			JOINT Spine1
			{
				OFFSET 0.000000 1.950000 0.060000
				CHANNELS 3 Zrotation Yrotation Xrotation
				JOINT Neck
				{
					OFFSET 0.000000 0.000000 0.000000
					CHANNELS 3 Zrotation Yrotation Xrotation
					JOINT Neck1
					{
						OFFSET 0.000000 1.600000 0.340000
						CHANNELS 3 Zrotation Yrotation Xrotation
						JOINT Head
						{
							OFFSET 0.000000 1.667000 -0.240000
							CHANNELS 3 Zrotation Yrotation Xrotation
							End Site
							{
								OFFSET 0.000000 0.000000 0.000000
							}
						}
					}
				}
				JOINT LeftShoulder
				{
					OFFSET 0.000000 0.000000 0.000000
					CHANNELS 3 Zrotation Yrotation Xrotation
					JOINT LeftArm
					{
						OFFSET 2.700000 1.550000 -0.730000
						CHANNELS 3 Zrotation Yrotation Xrotation
						JOINT LeftForeArm
						{
							OFFSET 5.450000 0.000000 0.000000
							CHANNELS 3 Zrotation Yrotation Xrotation
							JOINT LeftHand
							{
								OFFSET 3.450000 0.000000 0.000000
								CHANNELS 3 Zrotation Yrotation Xrotation
								JOINT LeftHandIndex1
								{
									OFFSET 0.750000 0.000000 0.000000
									CHANNELS 3 Zrotation Yrotation Xrotation
									End Site
									{
										OFFSET 0.000000 0.000000 0.000000
									}
								}
							}
						}
					}
				}
				JOINT RightShoulder
				{
					OFFSET 0.000000 0.000000 0.000000
					CHANNELS 3 Zrotation Yrotation Xrotation
					JOINT RightArm
					{
						OFFSET -2.700000 1.550000 -0.730000
						CHANNELS 3 Zrotation Yrotation Xrotation
						JOINT RightForeArm
						{
							OFFSET -5.450000 0.000000 0.000000
							CHANNELS 3 Zrotation Yrotation Xrotation
							JOINT RightHand
							{
								OFFSET -3.450000 0.000000 0.000000
								CHANNELS 3 Zrotation Yrotation Xrotation
								JOINT RightHandIndex1
								{
									OFFSET -0.750000 0.000000 0.000000
									CHANNELS 3 Zrotation Yrotation Xrotation
									End Site
									{
										OFFSET 0.000000 0.000000 0.000000
									}
								}
							}
						}
					}
				}
			}
		}
	}
}
MOTION
Frames: 13
Frame Time: 0.016667
-0.309740 17.500760 -3.555150 17.889979 -28.583310 -31.983373 -16.149725 10.354540 7.315245 15.726005 5.844329 -82.357651 37.430847 -1.641259 52.349453 0.803101 10.445783 0.724439 1.057240 0.910730 0.839970 18.058480 -8.471935 1.041222 -22.512709 4.376038 15.825385 10.723821 -8.725138 16.990983 -1.275490 -6.429318 2.080734 0.387170 -0.393560 0.302730 -2.057281 -3.100041 -9.663602 -11.552107 11.705984 58.750809 -3.616195 12.492015 17.537092 5.415581 -11.744411 -12.577636 -24.115215 13.491649 41.598452 -8.976150 1.445400 -31.949940 -16.524794 -20.187204 9.529114 -33.066025 5.194882 -14.947452 -75.803048 -26.484151 6.169395 -3.059691 3.334460 0.727300 -0.332890 0.523670 0.170510 4.012355 43.085649 2.690891 3.859272 31.023134 -20.359232 -112.883625 39.660630 -69.829612 2.158146 -1.094011 0.222540 0.140350 -0.376710 -0.185860 
-0.324470 17.515910 -3.550460 18.983790 -28.687705 -31.798418 -16.225937 10.128423 7.561336 19.107539 8.472030 -82.792707 29.436848 2.493911 56.391493 0.719245 10.650309 0.673847 1.012940 0.860950 0.822130 18.057033 -8.321014 0.920555 -22.974932 4.381936 15.296431 10.190149 -8.467781 16.414633 -1.214780 -6.332572 2.138134 0.375860 -0.303290 0.290490 -1.974384 -3.116906 -9.732084 -13.051620 12.624542 57.634726 -2.840573 12.681246 18.455241 4.886268 -11.689135 -12.298125 -23.051488 12.953179 39.952070 -8.331460 1.556990 -30.903550 -14.801188 -19.975464 9.808054 -32.281422 5.708125 -14.743633 -78.731810 -26.842081 6.939793 -3.148002 3.293611 0.694220 -0.274950 0.473640 0.173630 3.286971 43.192655 2.493945 3.118257 31.557335 -19.963096 -114.857720 38.007660 -70.533705 2.153787 -1.129122 0.182240 0.200730 -0.351080 -0.177430 
-0.282990 17.592590 -3.538950 21.277224 -28.700115 -32.179415 -16.301761 10.091143 7.683650 20.756894 9.158662 -82.305205 21.838476 6.671593 57.181613 0.659179 10.617497 0.688609 0.983340 0.842830 0.788070 18.014350 -8.138767 0.808259 -25.321044 4.958369 13.712969 10.445594 -8.428667 16.268980 -1.152718 -6.257018 2.161643 0.347320 -0.275180 0.272260 -1.783951 -3.578102 -9.762398 -16.469861 14.330613 57.128677 -1.045853 12.349463 18.749882 4.197436 -11.927894 -12.563313 -23.596440 12.689041 38.642736 -7.285970 1.094030 -31.173570 -12.380540 -19.920353 10.613980 -32.932476 7.100777 -15.158012 -81.926513 -28.007120 8.272584 -3.142471 3.302239 0.672810 -0.281170 0.463920 0.188550 2.278373 43.446849 2.638248 2.431465 31.966799 -19.249716 -118.664448 35.866075 -73.705498 2.158472 -1.216961 0.186310 0.218760 -0.354780 -0.146400 
-0.216420 17.706660 -3.541010 21.183089 -28.637437 -31.023004 -16.374724 9.807310 8.192636 23.595327 9.053779 -82.534221 5.930206 14.021626 56.988432 0.646622 11.191337 0.488957 0.989010 0.853870 0.783630 18.001703 -8.004050 0.631583 -25.779635 5.193446 11.111863 10.631112 -8.423200 17.767627 -1.076251 -6.111315 2.186014 0.342990 -0.300800 0.281880 -1.668536 -3.889210 -9.848493 -17.003099 14.204228 57.887051 0.219245 10.995174 18.642093 3.947073 -12.292247 -12.840579 -24.462983 12.424217 37.332550 -8.351460 0.565260 -30.580440 -11.482436 -20.068922 10.996190 -33.102584 7.809372 -15.269232 -83.457744 -29.096370 9.528426 -3.120085 3.374725 0.633810 -0.286880 0.465330 0.200470 2.099144 43.487788 2.976614 2.717530 32.529383 -17.736783 -124.040458 33.675372 -79.560862 2.137485 -1.388913 0.218730 0.171220 -0.382390 -0.129840 
-0.123090 17.829870 -3.526280 21.480992 -30.120424 -30.111448 -16.339673 9.671594 8.489075 25.348989 8.040966 -81.480417 -2.106424 18.040056 58.121799 0.848002 12.002700 0.269416 0.925430 0.784220 0.743610 18.047918 -8.133106 0.432017 -26.474911 5.395083 6.484309 10.177144 -8.468732 21.083361 -0.948102 -5.886996 2.242403 0.284520 -0.304760 0.270390 -1.746842 -3.709027 -9.854589 -16.512973 13.694420 58.818214 -0.139149 10.057571 17.800492 4.116836 -12.667356 -13.549185 -25.624399 12.446545 36.659342 -9.744230 0.178660 -30.382200 -10.034624 -20.331610 11.725422 -32.858079 9.440179 -15.485996 -86.338056 -30.360569 11.206852 -3.105020 3.390106 0.620130 -0.293890 0.449900 0.183020 0.651783 43.475295 3.357774 5.252723 33.437605 -16.123502 -129.537049 30.719606 -85.897240 2.109349 -1.460150 0.220410 0.151900 -0.360920 -0.122890 
-0.040390 17.948100 -3.502530 22.249012 -31.576583 -29.418897 -16.289039 9.852678 8.466980 24.168363 5.104171 -80.583587 -3.058151 19.578540 62.482768 1.081500 12.559069 0.142895 0.933330 0.802670 0.737580 18.071262 -8.297711 0.291803 -26.907326 5.110164 1.919173 8.882452 -8.174440 23.810243 -0.857791 -5.595323 2.316719 0.278880 -0.342000 0.251520 -1.753280 -3.777324 -9.771033 -17.372515 14.173141 59.194180 0.790468 9.331755 16.430110 3.614708 -12.811713 -13.698789 -26.365757 13.230723 35.891531 -9.835210 0.500590 -31.112210 -9.831017 -19.701327 11.948196 -32.556879 10.820616 -15.334658 -89.479258 -31.408825 13.302815 -3.043196 3.445272 0.620510 -0.330420 0.467400 0.203330 1.565624 42.492759 3.605809 7.697291 34.915235 -13.623071 -133.728996 31.302391 -94.539395 2.106114 -1.512478 0.233640 0.125140 -0.400280 -0.111830 
0.055670 18.059600 -3.461970 21.702621 -32.623627 -28.913006 -16.145343 10.268431 8.120200 21.911428 1.210197 -75.463841 -4.355086 20.626761 65.160235 1.241287 12.965332 0.040620 0.869740 0.716540 0.691950 18.094601 -8.628657 0.357159 -26.677521 4.909118 -1.965854 8.178830 -8.240015 27.185611 -0.823007 -5.520912 2.313403 0.204410 -0.348800 0.269240 -1.882949 -3.744981 -9.589693 -16.044103 13.032655 61.028559 0.319844 8.336529 14.957836 3.876910 -12.821141 -14.445342 -27.516793 13.858213 36.730334 -10.025670 -0.097160 -32.673680 -9.456598 -19.980519 12.149614 -31.208774 11.956289 -15.417858 -90.857109 -30.564144 12.792679 -3.029333 3.424269 0.667230 -0.361860 0.482110 0.172700 1.076830 41.879230 4.497210 10.669735 34.805814 -12.558489 -137.565202 32.464073 -105.640974 2.094463 -1.492764 0.236380 0.116980 -0.345020 -0.110730 
0.143440 18.147450 -3.406060 19.790536 -34.922483 -27.989685 -15.937558 10.668149 7.715887 19.717554 -1.070533 -69.451366 -5.901004 21.748478 66.759561 1.439460 13.285534 -0.029333 0.856060 0.727420 0.670610 18.163537 -9.093030 0.476827 -24.004084 4.885765 -5.506598 6.378480 -7.776106 31.087313 -0.816924 -5.421893 2.368532 0.173310 -0.374070 0.268530 -2.163169 -3.339400 -9.349530 -12.257339 10.757872 63.085717 -1.270067 7.709985 13.856711 4.200089 -13.074946 -15.095649 -29.027112 14.431234 36.821746 -11.354870 -0.745110 -33.619060 -9.737063 -20.108340 12.014898 -28.796689 12.546414 -15.331236 -92.700838 -29.866077 12.603920 -3.000395 3.428596 0.654060 -0.385010 0.508340 0.171960 1.040124 41.355180 5.413685 14.077001 34.582650 -11.980045 -140.114958 33.407321 -114.490094 2.106183 -1.499688 0.277150 0.111900 -0.344220 -0.082780 
0.210030 18.182210 -3.328540 17.059608 -38.891936 -26.468660 -15.708474 11.051171 7.249055 17.851183 -1.263059 -63.509979 -6.454254 22.231188 67.030715 1.496198 13.385614 -0.041808 0.824130 0.651770 0.667840 18.259125 -9.532591 0.719880 -19.462272 5.586415 -8.846156 3.737882 -6.676104 35.195475 -0.829295 -5.294859 2.425640 0.129880 -0.397310 0.233620 -2.526982 -2.751500 -9.111214 -7.599407 8.400008 64.778923 -3.112944 7.758513 11.699368 4.590258 -13.360102 -16.361822 -31.869176 15.945124 37.599863 -10.767240 -1.304310 -34.255100 -10.272811 -20.203465 11.736675 -27.861361 12.818385 -15.469740 -92.151844 -27.699567 10.180592 -2.945277 3.373932 0.721640 -0.445780 0.512010 0.153440 1.374119 40.759987 6.982462 18.248130 33.757552 -11.225373 -143.646743 35.030709 -125.943262 2.127041 -1.506456 0.241670 0.129910 -0.326730 -0.102040 
0.270120 18.184570 -3.235170 14.389169 -42.005440 -24.459879 -15.492542 11.492139 6.603415 15.034601 -1.577868 -56.959002 -6.508335 21.975523 66.282507 1.601173 13.109407 0.036742 0.897620 0.772580 0.669590 18.315057 -9.914083 1.146864 -15.514341 6.665540 -11.748318 1.627973 -5.739730 39.107760 -0.942979 -5.393260 2.410272 0.139680 -0.456040 0.260300 -2.934051 -2.179036 -8.822869 -2.793463 5.683350 65.046849 -5.113839 7.325479 10.346993 4.759503 -13.351091 -17.221034 -34.236193 17.710097 38.771442 -10.743940 -1.688730 -35.071110 -10.838542 -20.290242 11.191310 -27.452911 12.014542 -15.758847 -90.151372 -25.103021 7.128900 -2.866106 3.420435 0.701090 -0.498430 0.590800 0.205680 1.976603 39.759270 8.359037 23.325368 33.143400 -10.497957 -146.260078 38.090696 -136.768985 2.180133 -1.569066 0.343650 0.097340 -0.389150 -0.039170 
0.342350 18.139130 -3.108200 9.942908 -45.242331 -20.388578 -15.324337 11.757771 5.989232 13.039580 -1.253930 -51.230873 -6.837126 21.244979 63.856956 1.600308 12.567704 0.193926 0.922420 0.822910 0.671710 18.354794 -10.141076 1.762539 -11.118771 8.325131 -14.626802 0.734212 -5.264850 42.650751 -1.056518 -5.628690 2.350438 0.134570 -0.493820 0.248640 -3.491401 -1.419455 -8.594305 3.793208 1.512052 64.098820 -8.062719 6.260585 8.984940 5.273074 -13.383562 -18.104206 -36.372388 19.268319 39.327626 -11.869250 -1.619850 -33.953660 -12.260986 -20.658229 11.017679 -27.646152 12.254076 -16.149572 -88.527262 -22.853776 4.578153 -2.815689 3.431322 0.670070 -0.529870 0.621540 0.229610 2.836364 38.797232 9.472209 28.863445 32.535546 -10.104367 -148.311298 42.515559 -146.588406 2.248104 -1.615402 0.395530 0.081480 -0.428150 -0.003460 
0.405970 18.036450 -2.958620 3.962202 -48.209397 -14.489421 -15.211405 11.918106 5.331163 11.910617 -0.491624 -45.810817 -7.209800 19.755603 59.321269 1.419092 11.640795 0.443119 0.926970 0.831000 0.665710 18.372371 -10.267078 2.475530 -6.932591 10.272119 -17.207270 1.135896 -5.495214 45.518608 -1.179595 -5.977137 2.244242 0.128160 -0.490760 0.257840 -4.132484 -0.631801 -8.395357 11.686288 -2.899277 61.071619 -10.989639 5.146281 7.852974 5.426173 -13.296165 -18.154065 -37.379849 20.603257 39.711080 -12.608680 -0.734630 -32.445000 -14.149125 -20.223915 10.439271 -28.067091 11.633375 -15.865826 -85.959949 -20.669862 2.605138 -2.834181 3.432791 0.656610 -0.522970 0.624840 0.235870 4.528515 36.647967 9.841815 34.580063 31.614647 -9.508433 -152.026325 49.171873 -158.207871 2.251937 -1.686097 0.414710 0.072750 -0.426580 0.008250 
0.432100 17.895390 -2.806520 -2.332011 -48.964282 -7.840111 -15.086000 12.024530 4.639843 11.049122 -0.227155 -40.097441 -7.879161 17.711691 53.295504 1.119183 10.408227 0.814027 0.940950 0.840520 0.664640 18.427902 -10.430432 3.088405 -3.199588 11.575899 -19.158699 1.618749 -5.908489 47.193199 -1.272123 -6.265926 2.159775 0.160940 -0.448760 0.264590 -4.730605 0.034192 -8.179048 19.161465 -6.944694 55.948359 -13.060057 3.250243 7.428728 4.856594 -13.596844 -17.117382 -37.267455 20.935880 38.363806 -12.679340 0.657170 -30.550620 -15.948450 -18.912203 9.549759 -29.142897 10.512968 -15.212804 -81.660028 -18.101968 0.585583 -2.893594 3.424640 0.645270 -0.477030 0.598670 0.257750 7.306939 33.601907 9.349393 39.545781 30.261501 -9.465082 -160.235571 58.140383 -174.225556 2.169105 -1.758846 0.389150 0.084310 -0.429360 -0.000270 
